<?xml version="1.0" standalone="no"?><!DOCTYPE svg PUBLIC "-//W3C//DTD SVG 1.1//EN" "http://www.w3.org/Graphics/SVG/1.1/DTD/svg11.dtd"><svg t="1556196732470" class="icon" style="" viewBox="0 0 1024 1024" version="1.1" xmlns="http://www.w3.org/2000/svg" p-id="6894" xmlns:xlink="http://www.w3.org/1999/xlink" width="24" height="24"><defs><style type="text/css"></style></defs><path d="M714.94656 957.18912a20.21888 20.21888 0 0 1-19.33312-14.27968l-114.24256-371.76832-136.41216 115.58912 1.65376 201.04192a20.21888 20.21888 0 0 1-5.79584 14.336l-33.77152 34.37568a20.21376 20.21376 0 0 1-33.28-6.87616L300.672 740.6592l-196.17792-84.27008a20.22912 20.22912 0 0 1-6.5024-32.6912l33.6384-34.49344a20.25472 20.25472 0 0 1 15.46752-6.08256l205.76768 10.07616 115.89632-142.19264-374.35904-118.90176a20.21376 20.21376 0 0 1-8.33024-33.41824l64.26112-65.63328a20.2752 20.2752 0 0 1 16.47616-5.97504l461.64992 46.47936 130.82112-131.1232c52.10112-52.71552 102.05184-60.98944 127.18592-60.98944h0.36864c23.34208 0 43.96544 6.90176 55.23968 18.18112 27.22304 27.22304 25.87648 104.88832-47.46752 179.71712-0.05632 0.0512-0.10752 0.1536-0.1536 0.2048l-131.97312 131.75808 36.92544 458.3936a20.23936 20.23936 0 0 1-5.7088 15.78496l-64.3072 65.62816a20.22912 20.22912 0 0 1-14.44352 6.07744z m-123.24352-441.5232a20.21888 20.21888 0 0 1 19.31776 14.27968l113.25952 368.5888 34.06336-34.75968L721.408 405.248a20.20352 20.20352 0 0 1 5.86752-15.93344l138.52672-138.27072c33.99168-34.70336 45.952-65.15712 50.00704-84.59264 4.99712-23.9616-0.67584-36.28032-2.34496-38.05184-7.43936-7.33184-63.90784-19.62496-125.48096 42.71104a1.3568 1.3568 0 0 1-0.08704 0.08192l-137.61536 137.73824a20.21376 20.21376 0 0 1-16.32768 5.82656L172.43136 268.288l-34.47296 35.21024 371.38432 117.9392a20.21376 20.21376 0 0 1 9.55392 32.04608l-141.13792 173.16352c-4.06016 4.98688-10.24 7.72608-16.6656 7.424l-206.86848-10.12736-6.72256 6.89152 176.94208 76.0064a20.23936 20.23936 0 0 1 10.88 11.28448l64.84992 167.64928 5.93408-6.04672-1.65888-202.1376a20.18816 20.18816 0 0 1 7.14752-15.5904l167.03488-141.54752a20.23936 20.23936 0 0 1 13.07136-4.7872z" p-id="6895" fill="#e6e6e6"></path></svg>