<?xml version="1.0" standalone="no"?><!DOCTYPE svg PUBLIC "-//W3C//DTD SVG 1.1//EN" "http://www.w3.org/Graphics/SVG/1.1/DTD/svg11.dtd"><svg t="1556197132849" class="icon" style="" viewBox="0 0 1024 1024" version="1.1" xmlns="http://www.w3.org/2000/svg" p-id="5097" xmlns:xlink="http://www.w3.org/1999/xlink" width="24" height="24"><defs><style type="text/css"></style></defs><path d="M270.933333 723.2l-89.6 89.6c-8.533333 8.533333-8.533333 21.333333 0 29.866667 8.533333 8.533333 21.333333 8.533333 29.866667 0l89.6-89.6c8.533333-8.533333 8.533333-21.333333 0-29.866667C292.266667 714.666667 279.466667 714.666667 270.933333 723.2zM213.333333 512c0-12.8-8.533333-21.333333-21.333333-21.333333L64 490.666667c-12.8 0-21.333333 8.533333-21.333333 21.333333s8.533333 21.333333 21.333333 21.333333l128 0C204.8 533.333333 213.333333 524.8 213.333333 512zM753.066667 300.8l89.6-89.6c8.533333-8.533333 8.533333-21.333333 0-29.866667-8.533333-8.533333-21.333333-8.533333-29.866667 0l-89.6 89.6c-8.533333 8.533333-8.533333 21.333333 0 29.866667C731.733333 309.333333 744.533333 309.333333 753.066667 300.8zM512 213.333333c12.8 0 21.333333-8.533333 21.333333-21.333333L533.333333 64c0-12.8-8.533333-21.333333-21.333333-21.333333s-21.333333 8.533333-21.333333 21.333333l0 128C490.666667 204.8 499.2 213.333333 512 213.333333zM270.933333 300.8c8.533333 8.533333 21.333333 8.533333 29.866667 0 8.533333-8.533333 8.533333-21.333333 0-29.866667L211.2 179.2c-8.533333-8.533333-21.333333-8.533333-29.866667 0-8.533333 8.533333-8.533333 21.333333 0 29.866667L270.933333 300.8zM960 490.666667l-128 0c-12.8 0-21.333333 8.533333-21.333333 21.333333s8.533333 21.333333 21.333333 21.333333l128 0c12.8 0 21.333333-8.533333 21.333333-21.333333S972.8 490.666667 960 490.666667zM753.066667 723.2c-8.533333-8.533333-21.333333-8.533333-29.866667 0-8.533333 8.533333-8.533333 21.333333 0 29.866667l89.6 89.6c8.533333 8.533333 21.333333 8.533333 29.866667 0 8.533333-8.533333 8.533333-21.333333 0-29.866667L753.066667 723.2zM512 256c-140.8 0-256 115.2-256 256 0 140.8 115.2 256 256 256s256-115.2 256-256C768 371.2 652.8 256 512 256zM512 725.333333c-117.333333 0-213.333333-96-213.333333-213.333333 0-117.333333 96-213.333333 213.333333-213.333333s213.333333 96 213.333333 213.333333C725.333333 629.333333 629.333333 725.333333 512 725.333333zM512 810.666667c-12.8 0-21.333333 8.533333-21.333333 21.333333l0 128c0 12.8 8.533333 21.333333 21.333333 21.333333s21.333333-8.533333 21.333333-21.333333l0-128C533.333333 819.2 524.8 810.666667 512 810.666667z" p-id="5098" fill="#ffffff"></path></svg>