<?xml version="1.0" standalone="no"?><!DOCTYPE svg PUBLIC "-//W3C//DTD SVG 1.1//EN" "http://www.w3.org/Graphics/SVG/1.1/DTD/svg11.dtd"><svg t="1556197088137" class="icon" style="" viewBox="0 0 1024 1024" version="1.1" xmlns="http://www.w3.org/2000/svg" p-id="4726" xmlns:xlink="http://www.w3.org/1999/xlink" width="24" height="24"><defs><style type="text/css"></style></defs><path d="M384 213.333333l42.666667 0 0 106.666667c0 12.8 8.533333 21.333333 21.333333 21.333333l128 0c12.8 0 21.333333-8.533333 21.333333-21.333333l0-106.666667 42.666667 0c12.8 0 21.333333-8.533333 21.333333-21.333333 0-6.4-2.133333-10.666667-6.4-14.933333l-128-128C522.666667 44.8 518.4 42.666667 512 42.666667c-6.4 0-10.666667 2.133333-14.933333 6.4l-128 128C364.8 181.333333 362.666667 185.6 362.666667 192 362.666667 204.8 371.2 213.333333 384 213.333333zM512 93.866667 588.8 170.666667 576 170.666667c-12.8 0-21.333333 8.533333-21.333333 21.333333l0 106.666667-85.333333 0L469.333333 192c0-12.8-8.533333-21.333333-21.333333-21.333333l-12.8 0L512 93.866667zM753.066667 727.466667l89.6-89.6c8.533333-8.533333 8.533333-21.333333 0-29.866667-8.533333-8.533333-21.333333-8.533333-29.866667 0l-89.6 89.6c-8.533333 8.533333-8.533333 21.333333 0 29.866667C731.733333 736 744.533333 736 753.066667 727.466667zM270.933333 727.466667c8.533333 8.533333 21.333333 8.533333 29.866667 0 8.533333-8.533333 8.533333-21.333333 0-29.866667l-89.6-89.6c-8.533333-8.533333-21.333333-8.533333-29.866667 0-8.533333 8.533333-8.533333 21.333333 0 29.866667L270.933333 727.466667zM960 938.666667l-192 0c0-140.8-115.2-256-256-256-140.8 0-256 115.2-256 256L64 938.666667c-12.8 0-21.333333 8.533333-21.333333 21.333333 0 12.8 8.533333 21.333333 21.333333 21.333333l896 0c12.8 0 21.333333-8.533333 21.333333-21.333333C981.333333 947.2 972.8 938.666667 960 938.666667zM298.666667 938.666667c0-117.333333 96-213.333333 213.333333-213.333333s213.333333 96 213.333333 213.333333L298.666667 938.666667zM490.666667 490.666667l0 128c0 12.8 8.533333 21.333333 21.333333 21.333333s21.333333-8.533333 21.333333-21.333333l0-128c0-12.8-8.533333-21.333333-21.333333-21.333333S490.666667 477.866667 490.666667 490.666667z" p-id="4727" fill="#ffffff"></path></svg>