<?xml version="1.0" standalone="no"?><!DOCTYPE svg PUBLIC "-//W3C//DTD SVG 1.1//EN" "http://www.w3.org/Graphics/SVG/1.1/DTD/svg11.dtd"><svg t="1556197140412" class="icon" style="" viewBox="0 0 1024 1024" version="1.1" xmlns="http://www.w3.org/2000/svg" p-id="5252" xmlns:xlink="http://www.w3.org/1999/xlink" width="24" height="24"><defs><style type="text/css"></style></defs><path d="M512 213.333333c12.8 0 21.333333-8.533333 21.333333-21.333333L533.333333 64c0-12.8-8.533333-21.333333-21.333333-21.333333s-21.333333 8.533333-21.333333 21.333333l0 128C490.666667 204.8 499.2 213.333333 512 213.333333zM640 810.666667l-42.666667 0 0-106.666667c0-12.8-8.533333-21.333333-21.333333-21.333333l-128 0c-12.8 0-21.333333 8.533333-21.333333 21.333333l0 106.666667-42.666667 0c-12.8 0-21.333333 8.533333-21.333333 21.333333 0 6.4 2.133333 10.666667 6.4 14.933333l128 128c4.266667 4.266667 8.533333 6.4 14.933333 6.4 6.4 0 10.666667-2.133333 14.933333-6.4l128-128c4.266667-4.266667 6.4-8.533333 6.4-14.933333C661.333333 819.2 652.8 810.666667 640 810.666667zM512 930.133333 435.2 853.333333 448 853.333333c12.8 0 21.333333-8.533333 21.333333-21.333333l0-106.666667 85.333333 0 0 106.666667c0 12.8 8.533333 21.333333 21.333333 21.333333l12.8 0L512 930.133333zM753.066667 300.8l89.6-89.6c8.533333-8.533333 8.533333-21.333333 0-29.866667-8.533333-8.533333-21.333333-8.533333-29.866667 0l-89.6 89.6c-8.533333 8.533333-8.533333 21.333333 0 29.866667C731.733333 309.333333 744.533333 309.333333 753.066667 300.8zM960 512l-192 0c0-140.8-115.2-256-256-256-140.8 0-256 115.2-256 256L64 512c-12.8 0-21.333333 8.533333-21.333333 21.333333s8.533333 21.333333 21.333333 21.333333l896 0c12.8 0 21.333333-8.533333 21.333333-21.333333S972.8 512 960 512zM298.666667 512c0-117.333333 96-213.333333 213.333333-213.333333s213.333333 96 213.333333 213.333333L298.666667 512zM270.933333 300.8c8.533333 8.533333 21.333333 8.533333 29.866667 0 8.533333-8.533333 8.533333-21.333333 0-29.866667L211.2 179.2c-8.533333-8.533333-21.333333-8.533333-29.866667 0-8.533333 8.533333-8.533333 21.333333 0 29.866667L270.933333 300.8z" p-id="5253" fill="#ffffff"></path></svg>