<?xml version="1.0" standalone="no"?><!DOCTYPE svg PUBLIC "-//W3C//DTD SVG 1.1//EN" "http://www.w3.org/Graphics/SVG/1.1/DTD/svg11.dtd"><svg t="1556196749741" class="icon" style="" viewBox="0 0 1024 1024" version="1.1" xmlns="http://www.w3.org/2000/svg" p-id="7881" xmlns:xlink="http://www.w3.org/1999/xlink" width="24" height="24"><defs><style type="text/css"></style></defs><path d="M547.392 17.024c-1.408-11.264-19.904-11.264-21.312 0C479.424 393.344 243.008 470.272 243.008 726.72c0 160.32 134.464 290.304 293.76 290.304 159.232 0 293.696-129.984 293.696-290.304C830.464 470.272 594.048 393.344 547.392 17.024zM536.704 963.776c-130.432 0-240.512-106.368-240.512-237.632 0-212.416 185.088-294.464 240.576-528.32 2.112-9.024-2.176-1.792 0 7.232 53.056 218.048 249.024 329.472 240.384 521.152C771.264 857.28 667.072 963.776 536.704 963.776zM587.648 901.952c-14.464 0-26.176-12.16-26.176-27.136 0-14.976 11.712-27.136 26.176-27.136 36.032 0 65.344-30.272 65.344-67.584 0-14.976 11.712-27.136 26.176-27.136 10.816 0 20.16 6.784 24.128 16.512 1.344 3.264 2.112 6.848 2.112 10.624C705.28 847.296 652.48 901.952 587.648 901.952L587.648 901.952zM601.088 880" p-id="7882" fill="#e6e6e6"></path></svg>