<?xml version="1.0" standalone="no"?><!DOCTYPE svg PUBLIC "-//W3C//DTD SVG 1.1//EN" "http://www.w3.org/Graphics/SVG/1.1/DTD/svg11.dtd"><svg t="1556196716429" class="icon" style="" viewBox="0 0 1024 1024" version="1.1" xmlns="http://www.w3.org/2000/svg" p-id="5777" xmlns:xlink="http://www.w3.org/1999/xlink" width="24" height="24"><defs><style type="text/css"></style></defs><path d="M512 1023.999999l-10.871556-4.210371C151.981835 884.837802 111.60626 708.442098 111.60626 587.503896L111.60626 125.588463l31.169316 1.068303c242.693341 8.263639 346.035962-101.268855 347.010003-102.337159L512.031421 0l22.214422 24.319607c0.816938 0.879779 98.755201 102.777048 321.087941 102.777048 0 0 0 0 0.031421 0 8.452163 0 17.092851-0.125683 25.859221-0.43989l31.169316-1.068303 0 461.915434c0 120.938202-40.375575 297.333906-389.522184 432.285731L512 1023.999999zM171.871127 187.361522l0 400.142375c0 65.04081 0.031421 236.754833 340.128873 371.832341 340.128873-135.077508 340.128873-306.791531 340.128873-371.832341L852.128873 187.361522c-188.335563-0.722676-296.705492-67.742989-340.128873-102.368579C468.545198 119.587112 360.175269 186.576005 171.871127 187.361522zM242.064928 537.38791l61.930163-50.178828 123.923166 91.434182c0 0 171.11703-177.024118 336.326971-259.629088l23.596932 26.581896c0 0-206.496717 171.11703-312.698619 398.319975L242.064928 537.38791z" p-id="5778" fill="#e6e6e6"></path></svg>