<?xml version="1.0" standalone="no"?><!DOCTYPE svg PUBLIC "-//W3C//DTD SVG 1.1//EN" "http://www.w3.org/Graphics/SVG/1.1/DTD/svg11.dtd"><svg t="1555939952931" class="icon" style="" viewBox="0 0 1024 1024" version="1.1" xmlns="http://www.w3.org/2000/svg" p-id="3824" xmlns:xlink="http://www.w3.org/1999/xlink" width="24" height="24"><defs><style type="text/css"></style></defs><path d="M967.242322 547.307134 554.095747 138.604778c-14.622022-14.462387-38.406728-14.462387-53.020564 0L87.933725 547.307134c-7.359618 7.27673-7.423063 19.148106-0.14224 26.507724 7.28594 7.359618 18.244526 7.432273 25.604144 0.146333l87.887676-87.782276L201.283306 832.449359c0 19.386536 19.455097 30.489408 43.757596 30.489408l168.712493 0c20.380166 0 31.076786-9.848299 31.076786-30.489408L444.830181 626.473171c9.209756-1.583055 5.522784-7.082302 6.415107-7.082302l145.253198 0c0.155543 9.209756-1.242294 4.866844-1.242294 6.138814L595.256192 832.449359c0 19.386536 19.146059 30.489408 43.447535 30.489408l168.712493 0c20.380166 0 31.385824-9.848299 31.385824-30.489408L838.802044 474.628858l101.239775 99.332333c3.656273 3.615341 8.835226 5.418406 13.599739 5.418406 4.827959 0 9.868765-1.858324 13.534248-5.564739C974.458677 566.455239 974.60194 554.583864 967.242322 547.307134zM800.940738 825.075415 638.70475 825.075415c-1.697665 0 2.601244 3.107781-6.608511 2.815115L632.096239 625.530706c0-24.02723-11.42726-44.001143-30.883381-44.001143L451.245288 581.529563c-20.773116 0-44.277436 23.790846-44.277436 44.001143l0 199.545732L245.040902 825.076438c-1.697665 0 3.314489 3.107781-5.895267 2.815115L239.145635 449.115787l286.847054-283.857976 274.948049 272.281313L800.940738 825.075415z" p-id="3825" fill="#ffffff"></path></svg>