<?xml version="1.0" standalone="no"?><!DOCTYPE svg PUBLIC "-//W3C//DTD SVG 1.1//EN" "http://www.w3.org/Graphics/SVG/1.1/DTD/svg11.dtd"><svg t="1556197156374" class="icon" style="" viewBox="0 0 1024 1024" version="1.1" xmlns="http://www.w3.org/2000/svg" p-id="5457" xmlns:xlink="http://www.w3.org/1999/xlink" width="24" height="24"><defs><style type="text/css"></style></defs><path d="M810.666667 490.666667l-23.466667 61.866667L725.333333 552.533333l51.2 38.4L753.066667 661.333333l57.6-42.666667 57.6 42.666667-23.466667-70.4 51.2-38.4-61.866667 0L810.666667 490.666667zM539.733333 448l57.6-42.666667 57.6 42.666667-23.466667-70.4 51.2-38.4-61.866667 0L597.333333 277.333333l-23.466667 61.866667L512 339.2l51.2 38.4L539.733333 448zM981.333333 128l-85.333333 0-32-85.333333L832 128l-85.333333 0 70.4 53.333333L785.066667 277.333333l81.066667-59.733333 81.066667 59.733333-32-96L981.333333 128zM362.666667 339.2c0-113.066667 40.533333-215.466667 106.666667-296.533333C230.4 64 42.666667 266.666667 42.666667 512c0 260.266667 209.066667 469.333333 469.333333 469.333333 147.2 0 298.666667-68.266667 384-172.8-14.933333 2.133333-49.066667 2.133333-64 2.133333C571.733333 810.666667 362.666667 599.466667 362.666667 339.2zM512 938.666667C277.333333 938.666667 85.333333 746.666667 85.333333 512c0-187.733333 119.466667-349.866667 292.266667-405.333333-36.266667 72.533333-57.6 153.6-57.6 234.666667 0 268.8 204.8 488.533333 467.2 512C710.4 906.666667 610.133333 938.666667 512 938.666667z" p-id="5458" fill="#ffffff"></path></svg>